<svg width="30" height="24" viewBox="0 0 30 24" fill="none" xmlns="http://www.w3.org/2000/svg">
<path d="M13.5503 3.9929C12.4459 3.9929 11.5538 3.10071 11.5538 1.99645C11.5538 0.892106 12.446 0 13.5503 0C14.6545 0 15.5467 0.892181 15.5467 1.99645C15.5467 3.10102 14.6545 3.9929 13.5503 3.9929ZM13.5503 0.637316C12.8282 0.637316 12.2335 1.23199 12.2335 1.95405C12.2335 2.67613 12.8282 3.27078 13.5503 3.27078C14.2723 3.27078 14.867 2.67611 14.867 1.95405C14.867 1.23197 14.23 0.637316 13.5503 0.637316Z" fill="black"/>
<path d="M27.1006 20.5592C27.1006 21.3097 26.492 21.9183 25.7412 21.9183C24.9907 21.9183 24.3821 21.3097 24.3821 20.5592C24.3821 19.8084 24.9907 19.1997 25.7412 19.1997C26.492 19.1997 27.1006 19.8083 27.1006 20.5592Z" fill="black"/>
<path d="M25.7414 17.1185C25.4439 17.1185 25.1467 17.1609 24.8919 17.2035L24.1274 15.8441C24.6371 15.6743 25.1894 15.5466 25.7417 15.5466C26.4637 15.5466 27.1434 15.7164 27.7381 15.9715C27.9079 16.0565 28.1203 15.9715 28.2054 15.8017C28.2904 15.6319 28.2054 15.4195 28.0356 15.3344C27.3135 14.9946 26.5487 14.8248 25.742 14.8248C25.0622 14.8248 24.3825 14.9522 23.7878 15.207L21.749 11.554C21.749 11.5116 21.7066 11.5116 21.7066 11.5116L21.6216 11.3418C21.834 11.4692 22.0888 11.5543 22.3437 11.5543H23.3206C23.448 11.5543 23.533 11.4692 23.533 11.3418V9.0905C23.533 8.96308 23.448 8.87805 23.3206 8.87805H22.3437C21.6216 8.87805 20.9842 9.47272 20.9842 10.2375V10.2799L19.7525 8.02854C19.6675 7.85876 19.455 7.81609 19.3276 7.85876L19.0301 7.98617C19.0725 7.77372 19.0725 7.5189 18.9878 7.30646C18.8604 7.09401 18.6903 6.92423 18.4355 6.79682L14.3151 5.48008C14.1027 4.63061 13.2532 4.41814 12.9557 4.37574C12.4461 4.24833 11.9788 4.33337 11.5539 4.58819C11.129 4.84301 10.8319 5.2679 10.7045 5.73516L9.64251 10.4079C9.55748 10.7477 9.60014 11.0876 9.68489 11.4274C9.47244 11.4698 9.34503 11.5972 9.21761 11.7673C9.21761 11.8096 9.17525 11.8096 9.17525 11.8096V3.9505C9.17525 3.78072 9.00546 3.61064 8.83538 3.61064H0.339859C0.170077 3.61064 0 3.78043 0 3.9505V12.1062C0 12.276 0.169782 12.4461 0.339859 12.4461H1.99649V12.5735C1.99649 13.423 2.71857 14.1451 3.52568 14.1451H5.22464C3.52568 15.0796 2.37863 16.906 2.37863 18.9451C2.37863 19.1149 2.54842 19.285 2.71849 19.285H4.67262C4.50283 19.6672 4.41779 20.1345 4.41779 20.5594C4.41779 22.4708 5.94699 24 7.85841 24C9.68479 24 11.1717 22.5558 11.299 20.7718H20.4742C20.644 20.7718 20.814 20.602 20.814 20.4319C20.814 18.5628 21.876 16.9486 23.4476 16.0991L24.1697 17.4159C23.0227 17.9682 22.2155 19.1575 22.2155 20.5166C22.2155 22.4281 23.7447 23.9573 25.6562 23.9573C27.5676 23.9573 29.0968 22.4281 29.0968 20.5166C29.2245 18.6479 27.6529 17.1187 25.7412 17.1187L25.7414 17.1185ZM10.2796 10.5345L11.3415 5.86176C11.3839 5.56427 11.5963 5.30946 11.8512 5.13968C12.106 4.9699 12.4035 4.92723 12.7006 4.9699C13.4227 5.13968 13.5501 5.43717 13.5501 5.73434C13.5925 5.90413 13.7199 6.0742 13.9323 6.03183L18.0951 7.39127C18.1374 7.43364 18.2225 7.43364 18.2649 7.51868C18.3072 7.56105 18.3072 7.68846 18.3072 7.73113C18.2649 7.90091 18.1374 7.94358 17.9674 7.90091L14.1445 6.66921C14.1022 6.58417 14.0171 6.49943 13.8897 6.49943C13.7199 6.45706 13.5075 6.5418 13.5075 6.75425L12.658 10.3223V10.4918C12.658 10.5341 12.658 10.5341 12.7004 10.5341C12.7004 10.5765 12.7427 10.5765 12.7427 10.5765L12.7851 10.6189C12.7851 10.6613 12.8275 10.6613 12.8275 10.6613C12.8699 10.7036 12.8699 10.7036 12.9549 10.7036H13.0396L17.7971 11.1709C17.9668 11.2133 18.1369 11.2559 18.222 11.3833C18.307 11.5108 18.3917 11.6808 18.3917 11.8506C18.3917 11.893 18.3917 11.978 18.4341 12.0204L18.2643 16.7778C18.2643 16.9476 18.2219 17.1177 18.0945 17.2451C17.9671 17.3725 17.7971 17.4149 17.6273 17.4149C17.4575 17.4149 17.2874 17.3298 17.16 17.2024C17.0326 17.075 16.9902 16.9049 16.9902 16.7351L17.1176 12.7849C17.1176 12.6575 17.0753 12.5301 16.9478 12.4874C16.9055 12.445 16.8204 12.36 16.7354 12.36L11.2559 11.8077C11.2136 11.8077 11.2136 11.8077 11.2136 11.7653C10.9161 11.7229 10.6613 11.5105 10.4915 11.2557C10.2796 11.1291 10.1948 10.8316 10.2796 10.5345ZM16.8637 18.0104H16.0142C14.8672 18.0104 13.9327 17.0759 13.9327 15.929V13.7627C14.4424 13.7203 14.9096 13.4652 14.9947 12.9982L16.3541 13.1256L16.2267 16.8211C16.2267 17.3308 16.4815 17.798 16.8637 18.0104ZM0.679702 11.7662V6.15933H8.45311V11.7238H0.679702V11.7662ZM3.56803 13.4229C3.10076 13.4229 2.71855 13.0406 2.71855 12.5734V12.4883H8.7927C8.87774 12.4883 8.96248 12.446 9.00515 12.446V12.6158C9.00515 13.0407 9.2176 13.4229 9.51479 13.6353C9.21731 13.5929 8.96249 13.5079 8.66531 13.5079H8.49553L3.56803 13.4229ZM3.14343 18.5628C3.31321 16.0567 5.39474 14.1026 7.94348 14.1026H8.53815C10.4923 14.1026 12.1062 15.7168 12.1062 17.6706V17.713C12.1062 18.1803 11.724 18.5201 11.2567 18.5201L3.14343 18.5628ZM7.90085 23.3202C6.37165 23.3202 5.13995 22.0885 5.13995 20.5593C5.13995 20.0921 5.22499 19.6671 5.43744 19.2849H7.47629C6.96665 19.4547 6.54178 19.9646 6.54178 20.5593C6.54178 21.2814 7.17883 21.9188 7.90122 21.9188C8.6233 21.9188 9.26065 21.2817 9.26065 20.5593C9.26065 19.9647 8.87842 19.455 8.32615 19.2849H10.365C10.5774 19.6672 10.6625 20.1344 10.6625 20.5593C10.7046 22.0459 9.43018 23.3202 7.90098 23.3202H7.90085ZM20.1769 20.0494H11.3415C11.2992 19.7519 11.2565 19.4971 11.1291 19.2422H11.2565C12.106 19.2422 12.7857 18.5625 12.7857 17.713V17.6707C12.7857 15.929 11.7237 14.3574 10.1522 13.7204C9.9397 13.7204 9.72725 13.6353 9.51511 13.5079C9.72756 13.5503 9.94001 13.6353 10.1522 13.7204H13.2106V15.8867C13.2106 17.4159 14.4423 18.6476 15.9715 18.6476H20.474C20.3043 19.1148 20.2195 19.5821 20.1769 20.0494ZM20.6018 11.3415C20.432 11.3415 20.2619 11.5112 20.2619 11.6813V18.0106H18.3078C18.3502 17.9682 18.4352 17.9255 18.4776 17.8408C18.7324 17.586 18.8598 17.2461 18.9025 16.9063L19.0723 12.0215C19.0723 11.9791 19.0723 11.9365 19.0299 11.8517C19.0299 11.5542 18.9025 11.257 18.7324 11.0446C18.52 10.7471 18.1801 10.6197 17.8402 10.5349L13.465 10.11L14.1021 7.34912L17.5854 8.4961C17.458 8.58113 17.4156 8.75092 17.458 8.87833C17.5003 9.04811 17.7555 9.13315 17.9252 9.04811L19.327 8.45344L20.8562 11.2143L20.6018 11.3415ZM20.9416 17.6705V12.0209H21.2391L23.1505 15.4616C22.2157 15.9715 21.4513 16.736 20.9416 17.6705ZM25.7414 23.32C24.2122 23.32 22.9805 22.0883 22.9805 20.5591C22.9805 19.0299 24.2122 17.7982 25.7414 17.7982C27.2706 17.7982 28.5023 19.0299 28.5023 20.5591C28.5449 22.0457 27.2706 23.32 25.7414 23.32Z" fill="black"/>
</svg>
