<svg width="24" height="24" viewBox="0 0 24 24" fill="none" xmlns="http://www.w3.org/2000/svg">
<path d="M23.9998 12C23.9998 10.8628 23.6265 10.1428 23.1646 9.71428C23.6267 9.28571 23.9998 8.56581 23.9998 7.42857C23.9998 4.9199 20.3746 0 12.0044 0L11.9954 0.0188776V0C3.62072 0 0 4.9199 0 7.42857C0 8.56581 0.368708 9.28575 0.835186 9.71428C0.368698 10.1429 0 10.8628 0 12C0 13.1372 0.368708 13.8572 0.835186 14.2857C0.368698 14.7143 0 15.4342 0 16.5714C0 17.7087 0.368708 18.4286 0.835186 18.8571C0.368698 19.2857 0 20.0056 0 21.1429C0 23.4056 1.45281 24 2.22138 24H21.7786C22.5472 24 24 23.4056 24 21.1429C24 20.0056 23.6267 19.2857 23.1648 18.8571C23.6269 18.4286 24 17.7087 24 16.5714C24 15.4342 23.6267 14.7143 23.1648 14.2857C23.6267 13.8571 24 13.1372 24 12H23.9998ZM21.7784 22.8571H2.22573C1.99923 22.8515 0.888539 22.7543 0.888539 21.1429C0.888539 19.5314 1.99923 19.4342 2.22573 19.4286H21.7738C21.996 19.4342 23.111 19.5314 23.111 21.1429C23.1112 22.7544 21.996 22.8515 21.7784 22.8571ZM21.7738 14.8571C21.9648 14.8628 22.8222 14.9372 23.0533 16H0.946176C1.17268 14.9373 2.03031 14.8628 2.22564 14.8571L12.0043 14.8457L12.0045 14.8571H21.7738ZM23.0535 17.1429C22.8225 18.2056 21.965 18.2801 21.7784 18.2857H2.22574C2.03018 18.2801 1.17278 18.2056 0.946278 17.1429H23.0535ZM21.7784 13.7143H2.22574C1.99924 13.7087 0.888547 13.6115 0.888547 12C0.888547 10.3885 1.99924 10.2913 2.22574 10.2857H12.4882C12.5283 10.5258 12.5904 10.8171 12.706 11.1143C13.0704 12.0516 13.7679 12.5714 14.6608 12.5714C15.425 12.5714 16.0424 12.1885 16.4336 11.4857C16.7668 12.0913 17.3265 12.5714 18.215 12.5714C19.6722 12.5714 20.2408 11.2857 20.392 10.2857H21.7736C21.9957 10.2913 23.1108 10.3885 23.1108 12C23.111 13.6115 21.9957 13.7087 21.7782 13.7143H21.7784ZM13.3951 10.2857H15.9141C15.8919 10.3885 15.8608 10.4972 15.8164 10.6C15.6031 11.1599 15.2255 11.4286 14.6612 11.4286C13.8261 11.4286 13.5151 10.7944 13.3951 10.2857ZM16.9536 10.2857H19.4816C19.3616 10.7944 19.0507 11.4286 18.2154 11.4286C17.3802 11.4286 17.0693 10.7944 16.9536 10.2857H16.9536ZM21.7786 9.14286H2.22589C1.99939 9.13724 0.8887 9.04005 0.8887 7.42857C0.8887 5.57701 4.08312 1.14286 11.9956 1.14286V1.12755L12.0045 1.14286C15.4742 1.14286 18.0375 2 19.8237 3.11432C19.7926 3.21151 19.775 3.31993 19.775 3.4286C19.775 3.90284 20.0727 4.28575 20.4414 4.28575C20.6546 4.28575 20.8456 4.15437 20.9656 3.9485C22.4406 5.20564 23.1114 6.58269 23.1114 7.4286C23.1114 9.04009 21.9961 9.13724 21.7786 9.14286ZM11.9954 1.4289C12.3633 1.4289 12.6618 1.81283 12.6618 2.28604C12.6618 2.75926 12.3633 3.14318 11.9954 3.14318C11.6275 3.14318 11.329 2.75926 11.329 2.28604C11.329 1.81283 11.6275 1.4289 11.9954 1.4289ZM9.32795 4.28656C8.96003 4.28656 8.66154 3.90263 8.66154 3.42942C8.66154 2.95621 8.96003 2.57228 9.32795 2.57228C9.69587 2.57228 9.99436 2.95621 9.99436 3.42942C9.99436 3.90263 9.69626 4.28656 9.32795 4.28656ZM15.9961 5.42994C15.6282 5.42994 15.3297 5.04601 15.3297 4.5728C15.3297 4.09959 15.6282 3.71566 15.9961 3.71566C16.3641 3.71566 16.6626 4.09959 16.6626 4.5728C16.6626 5.04601 16.3645 5.42994 15.9961 5.42994ZM13.3291 7.14553C12.9612 7.14553 12.6627 6.76161 12.6627 6.28839C12.6627 5.81518 12.9612 5.43125 13.3291 5.43125C13.697 5.43125 13.9955 5.81518 13.9955 6.28839C13.9955 6.76161 13.697 7.14553 13.3291 7.14553ZM5.77187 4.85982C6.13978 4.85982 6.43828 5.24375 6.43828 5.71696C6.43828 6.19018 6.13978 6.57411 5.77187 6.57411C5.40395 6.57411 5.10545 6.19018 5.10545 5.71696C5.10545 5.24375 5.40356 4.85982 5.77187 4.85982ZM19.1082 7.14553C18.7403 7.14553 18.4418 6.76161 18.4418 6.28839C18.4418 5.81518 18.7403 5.43125 19.1082 5.43125C19.4762 5.43125 19.7747 5.81518 19.7747 6.28839C19.7747 6.76161 19.4762 7.14553 19.1082 7.14553ZM8.43904 6.57462C8.80696 6.57462 9.10546 6.95854 9.10546 7.43176C9.10546 7.90497 8.80696 8.2889 8.43904 8.2889C8.07113 8.2889 7.77263 7.90497 7.77263 7.43176C7.77263 6.95854 8.07113 6.57462 8.43904 6.57462ZM3.10469 6.57462C3.47261 6.57462 3.77111 6.95854 3.77111 7.43176C3.77111 7.90497 3.47261 8.2889 3.10469 8.2889C2.73678 8.2889 2.43828 7.90497 2.43828 7.43176C2.43828 6.95854 2.73678 6.57462 3.10469 6.57462Z" fill="black"/>
</svg>
