<svg width="114" height="114" viewBox="0 0 114 114" fill="none" xmlns="http://www.w3.org/2000/svg">
<circle cx="57" cy="57" r="57" fill="#436600"/>
<path d="M56.9996 27C46.0232 27 37 35.5593 37 47.7692C37 52.1262 38.0265 55.1573 39.9329 58.5147L55.6538 86.207V86.2064C55.9247 86.6963 56.4404 87 57 87C57.5596 87 58.0753 86.6963 58.3462 86.2064L74.0671 58.5141C75.9735 55.1573 77 52.1262 77 47.7692C77 35.5595 67.9767 27 57.0004 27L56.9996 27ZM56.9996 30.0766C66.4147 30.0766 73.9224 37.0376 73.9224 47.7689C73.9224 51.6801 73.1637 53.8912 71.3984 56.9996L57.0003 82.3361L42.6022 56.9996C40.8369 53.8912 40.0782 51.6795 40.0782 47.7689C40.0782 37.0375 47.5858 30.0766 57.001 30.0766H56.9996ZM56.9996 36.2306C51.0701 36.2306 46.2309 41.0705 46.2309 46.9996C46.2309 52.9287 51.0706 57.7685 56.9996 57.7685C62.9292 57.7685 67.7684 52.9287 67.7684 46.9996C67.7684 41.0699 62.9286 36.2306 56.9996 36.2306ZM56.9996 39.3073C61.2663 39.3073 64.6918 42.7332 64.6918 46.9996C64.6918 51.2659 61.2659 54.6919 56.9996 54.6919C52.7334 54.6919 49.3075 51.2659 49.3075 46.9996C49.3075 42.7332 52.7329 39.3073 56.9996 39.3073Z" fill="white"/>
</svg>
