<svg width="25" height="17" viewBox="0 0 25 17" fill="none" xmlns="http://www.w3.org/2000/svg">
<path d="M8.49885 8.79037C8.18001 8.79037 7.92239 9.04771 7.92239 9.36575V12.9469C7.92239 13.2649 8.18002 13.5222 8.49885 13.5222C8.81768 13.5222 9.07531 13.2649 9.07531 12.9469V9.36575C9.07531 9.04771 8.81768 8.79037 8.49885 8.79037Z" fill="#2E3125"/>
<path d="M12.6078 8.79037C12.2893 8.79037 12.0313 9.04771 12.0313 9.36575V12.9469C12.0313 13.2649 12.2893 13.5222 12.6078 13.5222C12.9266 13.5222 13.1846 13.2649 13.1846 12.9469V9.36575C13.1846 9.04771 12.9266 8.79037 12.6078 8.79037Z" fill="#2E3125"/>
<path d="M16.6812 8.79037C16.3623 8.79037 16.1047 9.04771 16.1047 9.36575V12.9469C16.1047 13.2649 16.3623 13.5222 16.6812 13.5222C17 13.5222 17.2576 13.2649 17.2576 12.9469V9.36575C17.2576 9.04771 17 8.79037 16.6812 8.79037Z" fill="#2E3125"/>
<path d="M23.7826 5.78581H19.1212L17.89 0.5H7.37786L6.0995 5.78581H1.21763C0.898796 5.78581 0.641174 6.04279 0.641174 6.36082C0.641174 6.67885 0.898805 6.93584 1.21763 6.93584H20.9578L19.3407 15.3493H5.944L4.41709 7.70549L3.24103 7.70531L4.99801 16.5H20.294L22.1321 6.93566H23.7824C24.1012 6.93566 24.3588 6.67867 24.3588 6.36064C24.359 6.04261 24.1014 5.78563 23.7825 5.78563L23.7826 5.78581ZM7.28545 5.78581L8.28573 1.65094H16.9741L17.937 5.78581H7.28545Z" fill="#2E3125"/>
</svg>
