<svg width="114" height="114" viewBox="0 0 114 114" fill="none" xmlns="http://www.w3.org/2000/svg">
<circle cx="57" cy="57" r="57" fill="#436600"/>
<path d="M58.0301 27C41.488 27 28.0292 40.4588 28.0292 57.0009C28.0292 62.0624 29.3147 67.0511 31.7523 71.4712L26.1022 85.1408C25.9058 85.616 25.9971 86.1602 26.337 86.5447C26.5959 86.8384 26.9654 87 27.3462 87C27.4646 87 27.5841 86.9844 27.7012 86.9519L42.7669 82.8263C47.3803 85.5584 52.6441 86.9995 58.0295 86.9995C74.5716 86.9995 88.0304 73.5419 88.0304 56.9986C88.031 40.4565 74.5716 27.0008 58.0295 27.0008L58.0301 27ZM58.0301 84.309C52.9481 84.309 47.9846 82.8998 43.6781 80.2327C43.4637 80.0993 43.218 80.0308 42.9699 80.0308C42.8509 80.0308 42.732 80.0464 42.6149 80.0789L29.6391 83.632L34.491 71.8924C34.6514 71.505 34.6213 71.0647 34.4111 70.7024C31.9969 66.5491 30.721 61.8115 30.721 56.9999C30.721 41.9415 42.9717 29.6902 58.0307 29.6902C73.0897 29.6902 85.3404 41.9409 85.3404 56.9999C85.3404 72.0589 73.0897 84.3096 58.0307 84.3096L58.0301 84.309Z" fill="white"/>
<path d="M70.7661 63.382L64.2593 59.9827C63.807 59.7466 63.2604 59.7863 62.8471 60.0854L57.3615 64.0585C54.284 61.7734 52.4375 59.734 52.4039 59.6968C52.3835 59.674 52.3589 59.6572 52.3372 59.6361C52.318 59.6169 52.3024 59.5947 52.2808 59.5761C52.2544 59.5532 50.9935 58.4401 49.398 56.3118L53.4624 50.6995C53.761 50.2862 53.8012 49.7395 53.5645 49.2872L50.1657 42.7816C49.8227 42.1244 49.013 41.8691 48.3563 42.2091L42.3349 45.3159C41.7571 45.6138 41.4753 46.2824 41.6646 46.9041C44.4446 56.0108 49.8095 60.9785 50.4523 61.5504C51.1437 62.3097 57.5075 69.0934 66.6437 71.8825C66.7741 71.9222 66.9062 71.9408 67.0366 71.9408C67.5292 71.9408 67.9965 71.6693 68.232 71.2122L71.3394 65.1914C71.6788 64.5342 71.4235 63.7251 70.7669 63.382L70.7661 63.382ZM44.582 47.1828L48.3988 45.2137L50.7926 49.7953L47.7854 53.9485C46.6513 52.1183 45.4973 49.856 44.5819 47.1828H44.582ZM66.3649 68.9596C63.8937 68.0916 61.6476 66.9088 59.7121 65.6779L63.75 62.753L68.3322 65.1468L66.3649 68.9596Z" fill="white"/>
</svg>
