<svg width="114" height="114" viewBox="0 0 114 114" fill="none" xmlns="http://www.w3.org/2000/svg">
<circle cx="57" cy="57" r="57" fill="#436600"/>
<path d="M57 81.6737C43.3959 81.6737 32.3262 70.6059 32.3262 56.9999C32.3262 43.394 43.394 32.3262 57 32.3262C70.606 32.3262 81.6738 43.394 81.6738 56.9999C81.6738 70.6059 70.6039 81.6737 57 81.6737ZM57 34.5824C44.6384 34.5824 34.5811 44.6391 34.5811 57.0012C34.5811 69.3633 44.6379 79.4201 57 79.4201C69.3621 79.4201 79.4189 69.3633 79.4189 57.0012C79.4189 44.6391 69.3621 34.5824 57 34.5824Z" fill="white"/>
<path d="M57 87C40.4585 87 27 73.5415 27 57C27 40.4585 40.4585 27 57 27C73.5415 27 87 40.4585 87 57C87 73.5415 73.5415 87 57 87ZM57 29.2523C41.6999 29.2523 29.2523 41.6999 29.2523 57C29.2523 72.3001 41.6999 84.7477 57 84.7477C72.3001 84.7477 84.7477 72.3001 84.7477 57C84.7477 41.6999 72.3001 29.2523 57 29.2523Z" fill="white"/>
<path d="M57 40.7714C56.3782 40.7714 55.8737 40.2668 55.8737 39.6451V33.4537C55.8737 32.8319 56.3782 32.3274 57 32.3274C57.6217 32.3274 58.1263 32.8319 58.1263 33.4537V39.6506C58.1228 40.2723 57.6202 40.7714 57 40.7714Z" fill="white"/>
<path d="M68.1457 44.7275C68.1457 44.4277 68.2649 44.143 68.4752 43.9307L72.851 39.5548C73.2791 39.1041 73.9924 39.0855 74.4452 39.5141C74.9125 39.9593 74.9125 40.7038 74.4452 41.147L70.0693 45.5228C69.3635 46.2301 68.1457 45.7296 68.1457 44.7275Z" fill="white"/>
<path d="M80.5457 58.1269H74.3543C73.7325 58.1269 73.228 57.6223 73.228 57.0006C73.228 56.3788 73.7325 55.8743 74.3543 55.8743H80.5457C81.1674 55.8743 81.672 56.3788 81.672 57.0006C81.672 57.6223 81.1694 58.1269 80.5457 58.1269Z" fill="white"/>
<path d="M72.8538 74.4455L68.4779 70.0697C68.0272 69.6416 68.0086 68.9283 68.4372 68.4755C68.8653 68.0233 69.5786 68.0062 70.0313 68.4348L74.448 72.8515C74.8877 73.2911 74.8892 74.0039 74.448 74.4456C74.0063 74.8868 73.2929 74.8867 72.8538 74.4455Z" fill="white"/>
<path d="M57 81.6737C56.3782 81.6737 55.8737 81.1692 55.8737 80.5474V74.356C55.8737 73.7343 56.3782 73.2297 57 73.2297C57.6217 73.2297 58.1263 73.7343 58.1263 74.356V80.5453C58.1263 81.1691 57.6217 81.6737 57 81.6737Z" fill="white"/>
<path d="M39.2235 73.6496C39.2235 73.3498 39.3428 73.0651 39.553 72.8528L43.9289 68.477C44.357 68.0262 45.0703 68.0076 45.523 68.4362C45.9753 68.8643 45.9924 69.5776 45.5638 70.0303C45.5582 70.0359 41.1506 74.4435 41.1471 74.447C40.4408 75.1543 39.2234 74.6497 39.2234 73.6497L39.2235 73.6496Z" fill="white"/>
<path d="M33.4531 58.1269C32.8313 58.1269 32.3268 57.6223 32.3268 57.0006C32.3268 56.3788 32.8313 55.8743 33.4531 55.8743H39.65C40.2717 55.8743 40.7763 56.3788 40.7763 57.0006C40.7763 57.6223 40.2717 58.1269 39.65 58.1269H33.4531Z" fill="white"/>
<path d="M43.9304 45.5233L39.5545 41.1474C39.1264 40.6967 39.145 39.9839 39.5953 39.5533C40.0309 39.1398 40.7125 39.1398 41.1482 39.5533L45.524 43.9291C45.9637 44.3688 45.9652 45.0816 45.524 45.5233C45.0849 45.9644 44.37 45.9644 43.9304 45.5233Z" fill="white"/>
<path d="M68.0568 58.1268H57.0001C56.3784 58.1268 55.8738 57.6222 55.8738 57.0005V44.7279C55.8738 44.1061 56.3784 43.6016 57.0001 43.6016C57.6219 43.6016 58.1264 44.1061 58.1264 44.7279V55.8742H68.0563C68.6781 55.8742 69.1826 56.3787 69.1826 57.0005C69.1831 57.6222 68.6786 58.1268 68.0568 58.1268Z" fill="white"/>
<path d="M64.3674 39.2931C63.7919 39.0547 63.5223 38.3937 63.7602 37.8201L65.0057 34.824C65.2386 34.247 65.8956 33.9694 66.4731 34.2023C67.0577 34.4387 67.3353 35.1107 67.0858 35.6903L65.8403 38.6899C65.5963 39.2704 64.9313 39.5295 64.3674 39.2931Z" fill="white"/>
<path d="M74.6721 49.3197C74.6721 48.8615 74.9498 48.45 75.3739 48.279L78.3775 47.05C78.9544 46.8136 79.6119 47.0908 79.8484 47.6663C80.0848 48.2432 79.8076 48.9007 79.2321 49.1372L76.2285 50.3641C75.4785 50.6679 74.6721 50.1165 74.6721 49.3197Z" fill="white"/>
<path d="M78.2508 67.2262L75.2623 65.958C74.6888 65.7141 74.4227 65.0531 74.6647 64.4797C74.9067 63.9063 75.5697 63.6401 76.1431 63.8821L79.1316 65.1502C79.7051 65.3922 79.9732 66.0532 79.7312 66.6267C79.4872 67.2036 78.8228 67.4682 78.2508 67.2262Z" fill="white"/>
<path d="M65.7685 79.9841C65.3087 79.9841 64.8952 79.7064 64.7221 79.2804L63.5154 76.2676C63.2734 75.6942 63.5435 75.0332 64.117 74.7927C64.7015 74.5467 65.3776 74.83 65.6064 75.4296L66.8132 78.4403C67.0461 79.0173 66.7684 79.6747 66.1915 79.9077C66.0571 79.9615 65.9138 79.9897 65.7689 79.9897L65.7685 79.9841Z" fill="white"/>
<path d="M47.227 79.6609C46.6556 79.4149 46.393 78.7524 46.6385 78.1805L47.9253 75.1995C48.1843 74.6336 48.8524 74.3856 49.4188 74.6447C49.9661 74.8962 50.2197 75.533 49.9943 76.0914L48.7095 79.0723C48.4651 79.6402 47.8041 79.9104 47.227 79.6609Z" fill="white"/>
<path d="M33.9553 65.628C33.9553 65.1627 34.2385 64.7452 34.6721 64.5761L37.6904 63.388C38.2694 63.1591 38.9248 63.4438 39.1523 64.0228C39.3796 64.6018 39.0964 65.2572 38.5174 65.4847L35.4972 66.6728C34.7653 66.9651 33.9573 66.4288 33.9553 65.628Z" fill="white"/>
<path d="M37.9551 49.871L34.9832 48.5676C34.4077 48.3332 34.1305 47.6737 34.3669 47.0983C34.6109 46.5042 35.3016 46.2305 35.8881 46.5042L38.8615 47.8075C39.4315 48.057 39.692 48.7216 39.4425 49.2914C39.1915 49.8614 38.5266 50.1185 37.9551 49.871Z" fill="white"/>
<path d="M49.6855 39.185C49.2201 39.185 48.8011 38.8982 48.6336 38.4646L47.464 35.4368C47.2241 34.8633 47.4937 34.2023 48.0672 33.9619C48.6406 33.722 49.3016 33.9916 49.5421 34.565C49.5441 34.5671 50.7358 37.6502 50.7358 37.6522C51.0205 38.3917 50.4732 39.185 49.6855 39.185Z" fill="white"/>
</svg>
