<svg width="16" height="24" viewBox="0 0 16 24" fill="none" xmlns="http://www.w3.org/2000/svg">
<path d="M7.99999 0C3.60934 0 0 3.42373 0 8.30768C0 10.0505 0.410588 11.2629 1.17319 12.6059L7.46164 23.6828V23.6826C7.57003 23.8785 7.77629 24 8.00015 24C8.224 24 8.43026 23.8785 8.53865 23.6826L14.8271 12.6057C15.5897 11.2629 16.0003 10.0505 16.0003 8.30769C16.0003 3.42379 12.3909 5.03037e-06 8.0003 5.03037e-06L7.99999 0ZM7.99999 1.23066C11.7661 1.23066 14.7692 4.01505 14.7692 8.30757C14.7692 9.87202 14.4657 10.7565 13.7596 11.9998L8.00027 22.1344L2.24093 11.9998C1.53478 10.7565 1.23132 9.8718 1.23132 8.30757C1.23132 4.015 4.23439 1.23066 8.00054 1.23066H7.99999ZM7.99999 3.69225C5.62813 3.69225 3.69241 5.62818 3.69241 7.99983C3.69241 10.3715 5.62835 12.3074 7.99999 12.3074C10.3719 12.3074 12.3076 10.3715 12.3076 7.99983C12.3076 5.62796 10.3716 3.69225 7.99999 3.69225ZM7.99999 4.92291C9.70669 4.92291 11.0769 6.29329 11.0769 7.99983C11.0769 9.70636 9.70653 11.0767 7.99999 11.0767C6.29346 11.0767 4.92307 9.70636 4.92307 7.99983C4.92307 6.29329 6.29329 4.92291 7.99999 4.92291Z" fill="#2E3125"/>
</svg>
