<svg width="349" height="45" viewBox="0 0 349 45" fill="none" xmlns="http://www.w3.org/2000/svg">
<path d="M28.1328 28.793H18.5605C17.8496 31.0273 17.0794 32.9655 16.25 34.6074C15.4375 36.2493 14.5319 37.612 13.5332 38.6953C12.5345 39.7786 11.4342 40.5827 10.2324 41.1074C9.04753 41.6322 7.71875 41.8945 6.24609 41.8945C5.43359 41.8945 4.65495 41.8184 3.91016 41.666C3.14844 41.5306 2.47982 41.3359 1.9043 41.082C1.32878 40.8281 0.871745 40.5234 0.533203 40.168C0.177734 39.8294 0 39.457 0 39.0508C0 38.7461 0.0507812 38.4414 0.152344 38.1367C0.236979 37.8151 0.363932 37.5273 0.533203 37.2734C0.702474 37.0026 0.914062 36.791 1.16797 36.6387C1.40495 36.4694 1.67578 36.3848 1.98047 36.3848C2.2513 36.3848 2.48828 36.571 2.69141 36.9434C2.89453 37.3158 3.1569 37.7305 3.47852 38.1875C3.7832 38.6276 4.18099 39.0339 4.67188 39.4062C5.16276 39.7786 5.83984 39.9648 6.70312 39.9648C7.58333 39.9648 8.42122 39.7533 9.2168 39.3301C10.0124 38.9069 10.7741 38.2467 11.502 37.3496C12.2467 36.4355 12.9577 35.276 13.6348 33.8711C14.3118 32.4661 14.972 30.7734 15.6152 28.793H9.62305V26.5586H16.2754C16.834 24.6628 17.3757 22.75 17.9004 20.8203C18.4421 18.8906 18.9499 17.0371 19.4238 15.2598C19.8978 13.4824 20.321 11.8236 20.6934 10.2832C21.0658 8.72591 21.3789 7.37174 21.6328 6.2207C21.2943 5.27279 20.8288 4.63802 20.2363 4.31641C19.6608 3.99479 18.8822 3.83398 17.9004 3.83398C16.9863 3.83398 16.0384 3.97786 15.0566 4.26562C14.0918 4.53646 13.2116 4.93424 12.416 5.45898C11.6204 5.9668 10.9603 6.60156 10.4355 7.36328C9.92773 8.10807 9.67383 8.94596 9.67383 9.87695C9.67383 10.4186 9.74154 10.8503 9.87695 11.1719C10.0293 11.4935 10.1986 11.7389 10.3848 11.9082C10.5879 12.0605 10.7826 12.1621 10.9688 12.2129C11.1549 12.2467 11.2988 12.2637 11.4004 12.2637C11.8066 12.2637 12.1452 12.196 12.416 12.0605C12.7038 11.9082 12.9492 11.7559 13.1523 11.6035C13.3724 11.4342 13.584 11.2819 13.7871 11.1465C13.9902 10.9941 14.2188 10.918 14.4727 10.918C14.6589 10.918 14.862 10.9688 15.082 11.0703C15.319 11.1549 15.5306 11.2988 15.7168 11.502C15.9199 11.7051 16.0892 11.9759 16.2246 12.3145C16.36 12.6361 16.4277 13.0339 16.4277 13.5078C16.4277 14.1849 16.2923 14.7689 16.0215 15.2598C15.7676 15.7507 15.429 16.1654 15.0059 16.5039C14.5996 16.8255 14.1257 17.071 13.584 17.2402C13.0592 17.3926 12.5345 17.4688 12.0098 17.4688C11.1973 17.4688 10.4609 17.3249 9.80078 17.0371C9.15755 16.7324 8.60742 16.3262 8.15039 15.8184C7.69336 15.3105 7.34635 14.7181 7.10938 14.041C6.8724 13.3639 6.75391 12.653 6.75391 11.9082C6.75391 10.791 6.9401 9.76693 7.3125 8.83594C7.6849 7.88802 8.20117 7.0332 8.86133 6.27148C9.52148 5.49284 10.3001 4.81576 11.1973 4.24023C12.0944 3.64779 13.0592 3.1569 14.0918 2.76758C15.1413 2.36133 16.2331 2.05664 17.3672 1.85352C18.5013 1.65039 19.6439 1.54883 20.7949 1.54883C22.4199 1.54883 23.791 1.68424 24.9082 1.95508C26.0423 2.20898 26.9902 2.59831 27.752 3.12305C28.5137 3.63086 29.123 4.28255 29.5801 5.07812C30.054 5.85677 30.4434 6.76237 30.748 7.79492L36.207 26.5586H41.7168V28.793H36.8164L38.7969 35.4453C38.8646 35.6992 38.9323 35.9362 39 36.1562C39.0677 36.3763 39.1439 36.571 39.2285 36.7402C39.3301 36.8926 39.4486 37.0195 39.584 37.1211C39.7363 37.2227 39.9225 37.2734 40.1426 37.2734C40.6165 37.2734 41.0566 37.1973 41.4629 37.0449C41.8691 36.8757 42.2246 36.7064 42.5293 36.5371L42.9609 37.4766C42.6562 37.6966 42.2669 37.9505 41.793 38.2383C41.3359 38.5091 40.8027 38.7715 40.1934 39.0254C39.6009 39.2793 38.9408 39.4909 38.2129 39.6602C37.485 39.8294 36.7064 39.9141 35.877 39.9141C34.7259 39.9141 33.7949 39.7702 33.084 39.4824C32.39 39.1947 31.8398 38.8392 31.4336 38.416C31.0443 37.9928 30.7565 37.5443 30.5703 37.0703C30.401 36.5964 30.2656 36.1816 30.1641 35.8262L28.1328 28.793ZM23.207 11.6289C22.513 14.4557 21.8359 17.1133 21.1758 19.6016C20.5326 22.0898 19.8893 24.4089 19.2461 26.5586H27.5234L23.207 11.6289Z" fill="#2E3125"/>
<path d="M54.2344 18.5098C54.8776 17.528 55.5632 16.6393 56.291 15.8438C56.5957 15.5052 56.9258 15.1751 57.2812 14.8535C57.6367 14.5319 58.0007 14.2441 58.373 13.9902C58.7624 13.7363 59.1602 13.5332 59.5664 13.3809C59.9727 13.2285 60.3789 13.1523 60.7852 13.1523C61.6484 13.1523 62.3255 13.4147 62.8164 13.9395C63.3073 14.4473 63.5527 15.1667 63.5527 16.0977C63.5527 16.6732 63.502 17.2318 63.4004 17.7734C63.3158 18.2982 63.138 18.9414 62.8672 19.7031H62.1562C62.0547 19.1784 61.8177 18.7467 61.4453 18.4082C61.0729 18.0527 60.5312 17.875 59.8203 17.875C59.2956 17.875 58.7793 17.9766 58.2715 18.1797C57.7637 18.3659 57.2643 18.6029 56.7734 18.8906C56.2995 19.1784 55.8424 19.4915 55.4023 19.8301C54.9792 20.1686 54.5898 20.4902 54.2344 20.7949V37.2734C54.2344 37.4935 54.2005 37.7559 54.1328 38.0605C54.0651 38.3652 53.8958 38.653 53.625 38.9238C53.3711 39.1947 52.9818 39.4232 52.457 39.6094C51.9492 39.8125 51.2467 39.9141 50.3496 39.9141C49.4525 39.9141 48.7415 39.804 48.2168 39.584C47.709 39.3809 47.3197 39.1354 47.0488 38.8477C46.778 38.5599 46.6087 38.2637 46.541 37.959C46.4733 37.6543 46.4395 37.4089 46.4395 37.2227V17.6211C46.4395 17.1302 46.321 16.707 46.084 16.3516C45.8639 15.9792 45.4831 15.793 44.9414 15.793C44.6536 15.793 44.4082 15.8438 44.2051 15.9453C44.002 16.0469 43.7819 16.1908 43.5449 16.377L43.0117 15.7422C43.401 15.4206 43.8327 15.1074 44.3066 14.8027C44.7975 14.4811 45.3223 14.2018 45.8809 13.9648C46.4395 13.7279 47.0404 13.5332 47.6836 13.3809C48.3268 13.2285 49.0039 13.1523 49.7148 13.1523C50.4427 13.1523 51.0605 13.2539 51.5684 13.457C52.0931 13.6432 52.5163 13.8971 52.8379 14.2188C53.1764 14.5234 53.4388 14.8704 53.625 15.2598C53.8112 15.6491 53.9466 16.0469 54.0312 16.4531C54.1328 16.8424 54.1921 17.2233 54.209 17.5957C54.2259 17.9512 54.2344 18.2559 54.2344 18.5098Z" fill="#2E3125"/>
<path d="M75.0293 15.3359V34.0996C75.0293 34.9967 75.1986 35.623 75.5371 35.9785C75.8756 36.3171 76.3411 36.4863 76.9336 36.4863C77.3906 36.4863 77.7969 36.3594 78.1523 36.1055C78.5078 35.8516 78.8125 35.5638 79.0664 35.2422C79.3711 34.8867 79.6335 34.472 79.8535 33.998L80.6406 34.3535C80.3867 34.8952 80.082 35.4876 79.7266 36.1309C79.388 36.7741 78.931 37.375 78.3555 37.9336C77.7799 38.4753 77.0521 38.9323 76.1719 39.3047C75.3086 39.6771 74.2168 39.8633 72.8965 39.8633C72.1517 39.8633 71.4323 39.7533 70.7383 39.5332C70.0612 39.3132 69.4518 38.9661 68.9102 38.4922C68.3854 38.0182 67.9622 37.4258 67.6406 36.7148C67.319 36.0039 67.1582 35.1491 67.1582 34.1504V15.3359H64.3145V13.5078C64.7884 13.5078 65.4486 13.3893 66.2949 13.1523C67.1413 12.8984 68.0046 12.4837 68.8848 11.9082C69.7819 11.3327 70.6113 10.5625 71.373 9.59766C72.1348 8.63281 72.6764 7.43945 72.998 6.01758H75.0293V13.5078H79.168C80.5221 13.5078 81.1992 13.2793 81.1992 12.8223C81.1992 12.653 81.1146 12.543 80.9453 12.4922C80.776 12.4245 80.5814 12.3483 80.3613 12.2637C80.1582 12.1621 79.972 12.0267 79.8027 11.8574C79.6335 11.6882 79.5488 11.4089 79.5488 11.0195C79.5488 10.5456 79.6927 10.1732 79.9805 9.90234C80.2852 9.63151 80.6745 9.49609 81.1484 9.49609C81.4531 9.49609 81.7155 9.5638 81.9355 9.69922C82.1725 9.81771 82.3672 9.98698 82.5195 10.207C82.6719 10.4102 82.7819 10.6471 82.8496 10.918C82.9342 11.1888 82.9766 11.4596 82.9766 11.7305C82.9766 12.8307 82.6549 13.7109 82.0117 14.3711C81.3854 15.0143 80.3698 15.3359 78.9648 15.3359H75.0293Z" fill="#2E3125"/>
<path d="M92.168 17.9766C92.7943 17.0794 93.5052 16.2754 94.3008 15.5645C94.6224 15.2598 94.9779 14.9635 95.3672 14.6758C95.7734 14.388 96.1966 14.1341 96.6367 13.9141C97.0938 13.6771 97.5677 13.4909 98.0586 13.3555C98.5664 13.2201 99.0827 13.1523 99.6074 13.1523C100.742 13.1523 101.757 13.3724 102.654 13.8125C103.551 14.2526 104.305 14.9889 104.914 16.0215C105.523 17.054 105.989 18.4251 106.311 20.1348C106.632 21.8275 106.793 23.9349 106.793 26.457C106.793 28.9115 106.573 31.0443 106.133 32.8555C105.693 34.6667 105.117 36.207 104.406 37.4766C103.695 38.7461 102.891 39.7786 101.994 40.5742C101.097 41.3867 100.191 42.0215 99.2773 42.4785C98.3633 42.9355 97.4831 43.2487 96.6367 43.418C95.7904 43.6042 95.0625 43.7057 94.4531 43.7227L94.1992 42.6816C94.9609 42.4954 95.638 42.1484 96.2305 41.6406C96.8229 41.1328 97.3223 40.3034 97.7285 39.1523C98.1348 37.9844 98.4395 36.4186 98.6426 34.4551C98.8626 32.4915 98.9727 29.9609 98.9727 26.8633C98.9727 24.7305 98.8711 23.0293 98.668 21.7598C98.4818 20.4733 98.2279 19.5 97.9062 18.8398C97.6016 18.1628 97.2461 17.7227 96.8398 17.5195C96.4505 17.2995 96.0527 17.1895 95.6465 17.1895C95.1556 17.1895 94.724 17.3249 94.3516 17.5957C93.9792 17.8496 93.6491 18.1458 93.3613 18.4844C93.0905 18.8229 92.8535 19.1615 92.6504 19.5C92.4642 19.8385 92.3034 20.0924 92.168 20.2617V37.2227C92.168 37.4427 92.1341 37.7135 92.0664 38.0352C91.9987 38.3398 91.8294 38.6361 91.5586 38.9238C91.3047 39.1947 90.9154 39.4232 90.3906 39.6094C89.8828 39.8125 89.1803 39.9141 88.2832 39.9141C87.3861 39.9141 86.6751 39.804 86.1504 39.584C85.6256 39.3809 85.2279 39.1354 84.957 38.8477C84.7031 38.5599 84.5423 38.2637 84.4746 37.959C84.4069 37.6543 84.373 37.4089 84.373 37.2227V4.46875C84.373 3.97786 84.2546 3.55469 84.0176 3.19922C83.7975 2.82682 83.4167 2.64062 82.875 2.64062C82.5872 2.64062 82.3333 2.69141 82.1133 2.79297C81.9102 2.8776 81.6901 3.01302 81.4531 3.19922L80.9453 2.58984C81.3346 2.26823 81.7663 1.95508 82.2402 1.65039C82.7142 1.32878 83.2305 1.04948 83.7891 0.8125C84.3646 0.575521 84.974 0.380859 85.6172 0.228516C86.2604 0.0761719 86.9375 0 87.6484 0C88.7487 0 89.6035 0.152344 90.2129 0.457031C90.8223 0.744792 91.2708 1.10872 91.5586 1.54883C91.8464 1.97201 92.0156 2.42904 92.0664 2.91992C92.1341 3.39388 92.168 3.81706 92.168 4.18945V17.9766Z" fill="#2E3125"/>
<path d="M134.24 35.0898C134.24 35.2422 134.249 35.4115 134.266 35.5977C134.283 35.7669 134.325 35.9362 134.393 36.1055C134.46 36.2578 134.562 36.3848 134.697 36.4863C134.833 36.5879 135.027 36.6387 135.281 36.6387C135.603 36.6387 135.891 36.5286 136.145 36.3086C136.398 36.0716 136.635 35.8346 136.855 35.5977L137.465 36.1309C137.211 36.4863 136.889 36.8841 136.5 37.3242C136.128 37.7474 135.671 38.1536 135.129 38.543C134.587 38.9323 133.969 39.2539 133.275 39.5078C132.581 39.7786 131.794 39.9141 130.914 39.9141C130.169 39.9141 129.518 39.8125 128.959 39.6094C128.417 39.4232 127.952 39.1693 127.562 38.8477C127.19 38.5091 126.911 38.1198 126.725 37.6797C126.538 37.2227 126.445 36.7402 126.445 36.2324V35.0898C125.599 36.0039 124.71 36.8079 123.779 37.502C123.373 37.8066 122.941 38.1029 122.484 38.3906C122.027 38.6784 121.553 38.9408 121.062 39.1777C120.572 39.3978 120.064 39.5755 119.539 39.7109C119.014 39.8464 118.49 39.9141 117.965 39.9141C116.949 39.9141 116.077 39.7363 115.35 39.3809C114.639 39.0085 114.063 38.526 113.623 37.9336C113.183 37.3411 112.861 36.6725 112.658 35.9277C112.455 35.1829 112.354 34.4382 112.354 33.6934V17.9766C112.354 17.8242 112.345 17.6634 112.328 17.4941C112.311 17.3079 112.269 17.1387 112.201 16.9863C112.133 16.8171 112.032 16.6816 111.896 16.5801C111.761 16.4785 111.566 16.4277 111.312 16.4277C111.008 16.4277 110.72 16.5462 110.449 16.7832C110.195 17.0033 109.967 17.2318 109.764 17.4688L109.129 16.9355C109.383 16.5801 109.696 16.1908 110.068 15.7676C110.458 15.3275 110.923 14.9128 111.465 14.5234C112.007 14.1341 112.624 13.8125 113.318 13.5586C114.029 13.2878 114.816 13.1523 115.68 13.1523C116.424 13.1523 117.076 13.2539 117.635 13.457C118.193 13.6432 118.659 13.9056 119.031 14.2441C119.404 14.5658 119.683 14.9551 119.869 15.4121C120.055 15.8522 120.148 16.3262 120.148 16.834V33.7949C120.148 34.0319 120.182 34.2773 120.25 34.5312C120.335 34.7682 120.445 34.9883 120.58 35.1914C120.732 35.3945 120.919 35.5638 121.139 35.6992C121.359 35.8177 121.621 35.877 121.926 35.877C122.417 35.877 122.908 35.75 123.398 35.4961C123.889 35.2422 124.338 34.946 124.744 34.6074C125.15 34.252 125.497 33.9049 125.785 33.5664C126.09 33.2279 126.31 32.974 126.445 32.8047V17.9766C126.445 17.8242 126.437 17.6634 126.42 17.4941C126.403 17.3079 126.361 17.1387 126.293 16.9863C126.225 16.8171 126.124 16.6816 125.988 16.5801C125.853 16.4785 125.658 16.4277 125.404 16.4277C125.1 16.4277 124.812 16.5462 124.541 16.7832C124.287 17.0033 124.059 17.2318 123.855 17.4688L123.221 16.9355C123.475 16.5801 123.788 16.1908 124.16 15.7676C124.549 15.3275 125.015 14.9128 125.557 14.5234C126.098 14.1341 126.716 13.8125 127.41 13.5586C128.121 13.2878 128.908 13.1523 129.771 13.1523C130.516 13.1523 131.168 13.2539 131.727 13.457C132.285 13.6432 132.751 13.9056 133.123 14.2441C133.495 14.5658 133.775 14.9551 133.961 15.4121C134.147 15.8522 134.24 16.3262 134.24 16.834V35.0898Z" fill="#2E3125"/>
<path d="M149.043 18.5098C149.686 17.528 150.372 16.6393 151.1 15.8438C151.404 15.5052 151.734 15.1751 152.09 14.8535C152.445 14.5319 152.809 14.2441 153.182 13.9902C153.571 13.7363 153.969 13.5332 154.375 13.3809C154.781 13.2285 155.188 13.1523 155.594 13.1523C156.457 13.1523 157.134 13.4147 157.625 13.9395C158.116 14.4473 158.361 15.1667 158.361 16.0977C158.361 16.6732 158.311 17.2318 158.209 17.7734C158.124 18.2982 157.947 18.9414 157.676 19.7031H156.965C156.863 19.1784 156.626 18.7467 156.254 18.4082C155.882 18.0527 155.34 17.875 154.629 17.875C154.104 17.875 153.588 17.9766 153.08 18.1797C152.572 18.3659 152.073 18.6029 151.582 18.8906C151.108 19.1784 150.651 19.4915 150.211 19.8301C149.788 20.1686 149.398 20.4902 149.043 20.7949V37.2734C149.043 37.4935 149.009 37.7559 148.941 38.0605C148.874 38.3652 148.704 38.653 148.434 38.9238C148.18 39.1947 147.79 39.4232 147.266 39.6094C146.758 39.8125 146.055 39.9141 145.158 39.9141C144.261 39.9141 143.55 39.804 143.025 39.584C142.518 39.3809 142.128 39.1354 141.857 38.8477C141.587 38.5599 141.417 38.2637 141.35 37.959C141.282 37.6543 141.248 37.4089 141.248 37.2227V17.6211C141.248 17.1302 141.13 16.707 140.893 16.3516C140.673 15.9792 140.292 15.793 139.75 15.793C139.462 15.793 139.217 15.8438 139.014 15.9453C138.811 16.0469 138.59 16.1908 138.354 16.377L137.82 15.7422C138.21 15.4206 138.641 15.1074 139.115 14.8027C139.606 14.4811 140.131 14.2018 140.689 13.9648C141.248 13.7279 141.849 13.5332 142.492 13.3809C143.135 13.2285 143.812 13.1523 144.523 13.1523C145.251 13.1523 145.869 13.2539 146.377 13.457C146.902 13.6432 147.325 13.8971 147.646 14.2188C147.985 14.5234 148.247 14.8704 148.434 15.2598C148.62 15.6491 148.755 16.0469 148.84 16.4531C148.941 16.8424 149.001 17.2233 149.018 17.5957C149.035 17.9512 149.043 18.2559 149.043 18.5098Z" fill="#2E3125"/>
<path d="M187.391 34.7441C187.391 35.472 187.475 36.0645 187.645 36.5215C187.831 36.9616 188.093 37.3086 188.432 37.5625C188.77 37.8164 189.193 37.9941 189.701 38.0957C190.226 38.1803 190.835 38.2227 191.529 38.2227C192.646 38.2227 193.654 38.1126 194.551 37.8926C195.448 37.6556 196.235 37.4017 196.912 37.1309C197.589 36.8431 198.156 36.5807 198.613 36.3438C199.087 36.1068 199.451 35.9883 199.705 35.9883C200.027 35.9883 200.281 36.0898 200.467 36.293C200.653 36.4961 200.746 36.7923 200.746 37.1816C200.746 37.8587 200.678 38.3496 200.543 38.6543C200.408 38.9421 200.128 39.1621 199.705 39.3145C198.165 39.8561 196.43 40.2539 194.5 40.5078C192.57 40.7786 190.387 40.9141 187.949 40.9141C186.138 40.9141 184.657 40.8294 183.506 40.6602C182.355 40.5078 181.449 40.2285 180.789 39.8223C180.129 39.416 179.672 38.8659 179.418 38.1719C179.181 37.4609 179.062 36.5553 179.062 35.4551V6.61133C179.062 6.23893 179.02 5.94271 178.936 5.72266C178.851 5.5026 178.732 5.33333 178.58 5.21484C178.428 5.07943 178.242 4.99479 178.021 4.96094C177.818 4.91016 177.59 4.88477 177.336 4.88477C176.964 4.88477 176.498 4.94401 175.939 5.0625C175.398 5.18099 174.822 5.35872 174.213 5.5957C173.604 5.83268 172.986 6.12891 172.359 6.48438C171.75 6.82292 171.2 7.21224 170.709 7.65234C170.235 8.09245 169.846 8.58333 169.541 9.125C169.236 9.66667 169.084 10.2507 169.084 10.877C169.084 11.4186 169.152 11.8503 169.287 12.1719C169.439 12.4935 169.609 12.7389 169.795 12.9082C169.981 13.0605 170.167 13.1621 170.354 13.2129C170.557 13.2467 170.701 13.2637 170.785 13.2637C171.208 13.2637 171.555 13.196 171.826 13.0605C172.097 12.9082 172.342 12.7559 172.562 12.6035C172.783 12.4342 172.986 12.2819 173.172 12.1465C173.375 11.9941 173.604 11.918 173.857 11.918C174.061 11.918 174.272 11.9688 174.492 12.0703C174.729 12.1549 174.941 12.2988 175.127 12.502C175.33 12.7051 175.499 12.9759 175.635 13.3145C175.77 13.6361 175.838 14.0339 175.838 14.5078C175.838 15.1849 175.702 15.7689 175.432 16.2598C175.178 16.7507 174.839 17.1654 174.416 17.5039C174.01 17.8255 173.536 18.071 172.994 18.2402C172.469 18.3926 171.945 18.4688 171.42 18.4688C170.607 18.4688 169.871 18.3333 169.211 18.0625C168.568 17.7747 168.018 17.3854 167.561 16.8945C167.104 16.4036 166.757 15.8281 166.52 15.168C166.283 14.5078 166.164 13.8053 166.164 13.0605C166.164 11.8926 166.376 10.8262 166.799 9.86133C167.222 8.87956 167.798 7.99935 168.525 7.2207C169.27 6.44206 170.133 5.76497 171.115 5.18945C172.114 4.59701 173.189 4.10612 174.34 3.7168C175.491 3.32747 176.693 3.03971 177.945 2.85352C179.198 2.65039 180.451 2.54883 181.703 2.54883C183.091 2.54883 184.166 2.68424 184.928 2.95508C185.706 3.20898 186.273 3.52214 186.629 3.89453C187.001 4.26693 187.221 4.65625 187.289 5.0625C187.357 5.46875 187.391 5.80729 187.391 6.07812V34.7441Z" fill="#2E3125"/>
<path d="M215.346 27.3555C215.346 26.9323 215.21 26.6107 214.939 26.3906C214.669 26.1706 214.322 26.0605 213.898 26.0605C213.306 26.0605 212.739 26.196 212.197 26.4668C211.673 26.7376 211.207 27.1354 210.801 27.6602C210.395 28.1849 210.073 28.8366 209.836 29.6152C209.599 30.377 209.48 31.2656 209.48 32.2812C209.48 33.263 209.548 34.0755 209.684 34.7188C209.836 35.362 210.031 35.8783 210.268 36.2676C210.521 36.64 210.809 36.9023 211.131 37.0547C211.452 37.207 211.791 37.2832 212.146 37.2832C212.587 37.2832 213.001 37.1732 213.391 36.9531C213.78 36.7161 214.118 36.4199 214.406 36.0645C214.694 35.709 214.923 35.3112 215.092 34.8711C215.261 34.431 215.346 33.9909 215.346 33.5508V27.3555ZM211.309 16.2344C210.733 16.2344 210.2 16.3021 209.709 16.4375C209.218 16.5729 208.795 16.7422 208.439 16.9453C208.084 17.1484 207.805 17.377 207.602 17.6309C207.398 17.8678 207.297 18.0964 207.297 18.3164C207.297 18.5703 207.424 18.7565 207.678 18.875C207.949 18.9766 208.245 19.1035 208.566 19.2559C208.888 19.3913 209.176 19.5944 209.43 19.8652C209.701 20.1191 209.836 20.5169 209.836 21.0586C209.836 21.4141 209.76 21.7441 209.607 22.0488C209.472 22.3366 209.277 22.599 209.023 22.8359C208.786 23.056 208.499 23.2337 208.16 23.3691C207.839 23.4876 207.5 23.5469 207.145 23.5469C206.197 23.5469 205.426 23.2253 204.834 22.582C204.258 21.9388 203.971 21.084 203.971 20.0176C203.971 18.985 204.242 18.1048 204.783 17.377C205.325 16.6322 206.027 16.0228 206.891 15.5488C207.771 15.0749 208.761 14.7279 209.861 14.5078C210.962 14.2708 212.062 14.1523 213.162 14.1523C214.482 14.1523 215.743 14.2962 216.945 14.584C218.147 14.8717 219.205 15.3288 220.119 15.9551C221.05 16.5814 221.786 17.377 222.328 18.3418C222.887 19.3066 223.166 20.4746 223.166 21.8457V36.1914C223.166 36.3438 223.174 36.513 223.191 36.6992C223.208 36.8854 223.251 37.0547 223.318 37.207C223.386 37.3594 223.488 37.4863 223.623 37.5879C223.758 37.6895 223.953 37.7402 224.207 37.7402C224.512 37.7402 224.791 37.6302 225.045 37.4102C225.316 37.1732 225.553 36.9362 225.756 36.6992L226.391 37.2324C226.137 37.5879 225.832 37.9772 225.477 38.4004C225.121 38.8236 224.689 39.2214 224.182 39.5938C223.674 39.9661 223.081 40.2793 222.404 40.5332C221.727 40.7871 220.957 40.9141 220.094 40.9141C219.027 40.9141 218.079 40.6009 217.25 39.9746C216.421 39.3314 215.879 38.3496 215.625 37.0293C215.083 37.7572 214.516 38.3665 213.924 38.8574C213.348 39.3483 212.756 39.7461 212.146 40.0508C211.537 40.3555 210.919 40.5755 210.293 40.7109C209.684 40.8464 209.066 40.9141 208.439 40.9141C207.627 40.9141 206.84 40.7871 206.078 40.5332C205.316 40.2793 204.631 39.8815 204.021 39.3398C203.429 38.7812 202.947 38.0618 202.574 37.1816C202.219 36.3014 202.041 35.2266 202.041 33.957C202.041 32.4167 202.346 31.1556 202.955 30.1738C203.564 29.1921 204.36 28.3711 205.342 27.7109C206.34 27.0339 207.466 26.4583 208.719 25.9844C209.988 25.5104 211.283 25.0111 212.604 24.4863C213.585 24.097 214.296 23.5215 214.736 22.7598C215.193 21.9811 215.422 21.1855 215.422 20.373C215.422 19.1204 215.049 18.1217 214.305 17.377C213.577 16.6152 212.578 16.2344 211.309 16.2344Z" fill="#2E3125"/>
<path d="M244.748 27.8633C244.748 25.7305 244.646 24.0293 244.443 22.7598C244.257 21.4733 244.003 20.5 243.682 19.8398C243.36 19.1628 243.005 18.7227 242.615 18.5195C242.226 18.2995 241.828 18.1895 241.422 18.1895C240.931 18.1895 240.491 18.3249 240.102 18.5957C239.729 18.8496 239.399 19.1458 239.111 19.4844C238.84 19.8229 238.604 20.1615 238.4 20.5C238.214 20.8385 238.053 21.0924 237.918 21.2617V38.2227C237.918 38.4427 237.884 38.7135 237.816 39.0352C237.749 39.3398 237.579 39.6361 237.309 39.9238C237.055 40.1947 236.665 40.4232 236.141 40.6094C235.633 40.8125 234.93 40.9141 234.033 40.9141C233.136 40.9141 232.425 40.804 231.9 40.584C231.393 40.3809 231.003 40.1354 230.732 39.8477C230.462 39.5599 230.292 39.2637 230.225 38.959C230.157 38.6543 230.123 38.4089 230.123 38.2227V18.6211C230.123 18.1302 230.005 17.707 229.768 17.3516C229.548 16.9792 229.167 16.793 228.625 16.793C228.337 16.793 228.092 16.8438 227.889 16.9453C227.686 17.0469 227.465 17.1908 227.229 17.377L226.695 16.7422C227.085 16.4206 227.516 16.1074 227.99 15.8027C228.481 15.4811 229.006 15.2018 229.564 14.9648C230.123 14.7279 230.724 14.5332 231.367 14.3809C232.01 14.2285 232.688 14.1523 233.398 14.1523C234.499 14.1523 235.354 14.3385 235.963 14.7109C236.572 15.0664 237.021 15.498 237.309 16.0059C237.596 16.5137 237.766 17.0469 237.816 17.6055C237.884 18.1471 237.918 18.6042 237.918 18.9766C238.544 18.0794 239.255 17.2754 240.051 16.5645C240.372 16.2598 240.728 15.9635 241.117 15.6758C241.523 15.388 241.947 15.1341 242.387 14.9141C242.844 14.6771 243.318 14.4909 243.809 14.3555C244.316 14.2201 244.833 14.1523 245.357 14.1523C246.508 14.1523 247.524 14.3724 248.404 14.8125C249.301 15.2526 250.055 15.9889 250.664 17.0215C251.273 18.054 251.739 19.4251 252.061 21.1348C252.382 22.8275 252.543 24.9349 252.543 27.457C252.543 29.9115 252.323 32.0443 251.883 33.8555C251.443 35.6667 250.867 37.207 250.156 38.4766C249.445 39.7461 248.641 40.7786 247.744 41.5742C246.847 42.3867 245.941 43.0215 245.027 43.4785C244.113 43.9355 243.233 44.2487 242.387 44.418C241.557 44.6042 240.838 44.7057 240.229 44.7227L239.949 43.6816C240.457 43.5632 240.923 43.377 241.346 43.123C241.786 42.8691 242.184 42.4967 242.539 42.0059C242.895 41.515 243.208 40.8971 243.479 40.1523C243.749 39.3906 243.978 38.4427 244.164 37.3086C244.367 36.1745 244.511 34.8372 244.596 33.2969C244.697 31.7396 244.748 29.9284 244.748 27.8633Z" fill="#2E3125"/>
<path d="M273.922 22.9375C273.397 22.9375 272.957 22.8613 272.602 22.709C272.246 22.5397 271.958 22.3197 271.738 22.0488C271.518 21.778 271.357 21.4818 271.256 21.1602C271.154 20.8216 271.104 20.4746 271.104 20.1191C271.104 19.6621 271.129 19.222 271.18 18.7988C271.247 18.3757 271.256 17.9948 271.205 17.6562C271.171 17.3177 271.044 17.0469 270.824 16.8438C270.604 16.6406 270.215 16.5391 269.656 16.5391C269.064 16.5391 268.438 16.7083 267.777 17.0469C267.117 17.3854 266.516 17.9186 265.975 18.6465C265.433 19.3743 264.984 20.3138 264.629 21.4648C264.273 22.599 264.096 23.9701 264.096 25.5781C264.096 27.3555 264.257 28.9805 264.578 30.4531C264.917 31.9089 265.416 33.153 266.076 34.1855C266.736 35.2181 267.557 36.0221 268.539 36.5977C269.521 37.1562 270.672 37.4355 271.992 37.4355C272.585 37.4355 273.143 37.3678 273.668 37.2324C274.21 37.097 274.717 36.9108 275.191 36.6738C275.665 36.4368 276.114 36.166 276.537 35.8613C276.977 35.5397 277.4 35.2012 277.807 34.8457L278.441 35.4551C278.052 35.9798 277.553 36.5553 276.943 37.1816C276.334 37.8079 275.598 38.4004 274.734 38.959C273.871 39.5007 272.864 39.9577 271.713 40.3301C270.562 40.6855 269.25 40.8633 267.777 40.8633C266.305 40.8633 264.866 40.584 263.461 40.0254C262.073 39.4499 260.837 38.6204 259.754 37.5371C258.671 36.4538 257.799 35.1419 257.139 33.6016C256.495 32.0443 256.174 30.2754 256.174 28.2949C256.174 26.7546 256.368 25.3411 256.758 24.0547C257.147 22.7513 257.672 21.5749 258.332 20.5254C259.009 19.4759 259.788 18.5534 260.668 17.7578C261.565 16.9622 262.505 16.3021 263.486 15.7773C264.468 15.2357 265.467 14.8294 266.482 14.5586C267.515 14.2878 268.505 14.1523 269.453 14.1523C270.706 14.1523 271.798 14.2962 272.729 14.584C273.66 14.8717 274.43 15.2526 275.039 15.7266C275.665 16.2005 276.131 16.7507 276.436 17.377C276.74 17.9863 276.893 18.6211 276.893 19.2812C276.893 19.7721 276.825 20.2461 276.689 20.7031C276.571 21.1432 276.385 21.5326 276.131 21.8711C275.894 22.1927 275.589 22.4551 275.217 22.6582C274.844 22.8444 274.413 22.9375 273.922 22.9375Z" fill="#2E3125"/>
<path d="M289.715 18.9766C290.341 18.0794 291.052 17.2754 291.848 16.5645C292.169 16.2598 292.525 15.9635 292.914 15.6758C293.32 15.388 293.743 15.1341 294.184 14.9141C294.641 14.6771 295.115 14.4909 295.605 14.3555C296.113 14.2201 296.63 14.1523 297.154 14.1523C298.288 14.1523 299.304 14.3724 300.201 14.8125C301.098 15.2526 301.852 15.9889 302.461 17.0215C303.07 18.054 303.536 19.4251 303.857 21.1348C304.179 22.8275 304.34 24.9349 304.34 27.457C304.34 29.9115 304.12 32.0443 303.68 33.8555C303.24 35.6667 302.664 37.207 301.953 38.4766C301.242 39.7461 300.438 40.7786 299.541 41.5742C298.644 42.3867 297.738 43.0215 296.824 43.4785C295.91 43.9355 295.03 44.2487 294.184 44.418C293.337 44.6042 292.609 44.7057 292 44.7227L291.746 43.6816C292.508 43.4954 293.185 43.1484 293.777 42.6406C294.37 42.1328 294.869 41.3034 295.275 40.1523C295.682 38.9844 295.986 37.4186 296.189 35.4551C296.41 33.4915 296.52 30.9609 296.52 27.8633C296.52 25.7305 296.418 24.0293 296.215 22.7598C296.029 21.4733 295.775 20.5 295.453 19.8398C295.148 19.1628 294.793 18.7227 294.387 18.5195C293.997 18.2995 293.6 18.1895 293.193 18.1895C292.702 18.1895 292.271 18.3249 291.898 18.5957C291.526 18.8496 291.196 19.1458 290.908 19.4844C290.637 19.8229 290.4 20.1615 290.197 20.5C290.011 20.8385 289.85 21.0924 289.715 21.2617V38.2227C289.715 38.4427 289.681 38.7135 289.613 39.0352C289.546 39.3398 289.376 39.6361 289.105 39.9238C288.852 40.1947 288.462 40.4232 287.938 40.6094C287.43 40.8125 286.727 40.9141 285.83 40.9141C284.933 40.9141 284.222 40.804 283.697 40.584C283.173 40.3809 282.775 40.1354 282.504 39.8477C282.25 39.5599 282.089 39.2637 282.021 38.959C281.954 38.6543 281.92 38.4089 281.92 38.2227V5.46875C281.92 4.97786 281.801 4.55469 281.564 4.19922C281.344 3.82682 280.964 3.64062 280.422 3.64062C280.134 3.64062 279.88 3.69141 279.66 3.79297C279.457 3.8776 279.237 4.01302 279 4.19922L278.492 3.58984C278.882 3.26823 279.313 2.95508 279.787 2.65039C280.261 2.32878 280.777 2.04948 281.336 1.8125C281.911 1.57552 282.521 1.38086 283.164 1.22852C283.807 1.07617 284.484 1 285.195 1C286.296 1 287.15 1.15234 287.76 1.45703C288.369 1.74479 288.818 2.10872 289.105 2.54883C289.393 2.97201 289.562 3.42904 289.613 3.91992C289.681 4.39388 289.715 4.81706 289.715 5.18945V18.9766Z" fill="#2E3125"/>
<path d="M316.146 28.8535C316.146 29.3952 316.223 29.9876 316.375 30.6309C316.544 31.2572 316.781 31.8919 317.086 32.5352C317.391 33.1784 317.763 33.7962 318.203 34.3887C318.66 34.9642 319.176 35.4805 319.752 35.9375C320.344 36.3945 320.996 36.7585 321.707 37.0293C322.418 37.3001 323.197 37.4355 324.043 37.4355C324.635 37.4355 325.186 37.3678 325.693 37.2324C326.201 37.097 326.675 36.9108 327.115 36.6738C327.555 36.4368 327.979 36.166 328.385 35.8613C328.791 35.5397 329.197 35.2012 329.604 34.8457L330.238 35.4551C329.849 35.9798 329.35 36.5553 328.74 37.1816C328.131 37.8079 327.395 38.4004 326.531 38.959C325.668 39.5007 324.661 39.9577 323.51 40.3301C322.359 40.6855 321.047 40.8633 319.574 40.8633C318.102 40.8633 316.663 40.6009 315.258 40.0762C313.87 39.5345 312.634 38.7305 311.551 37.6641C310.467 36.5977 309.596 35.2689 308.936 33.6777C308.292 32.0866 307.971 30.2246 307.971 28.0918C307.971 26.5514 308.165 25.138 308.555 23.8516C308.944 22.5651 309.469 21.4056 310.129 20.373C310.806 19.3405 311.585 18.4349 312.465 17.6562C313.362 16.8776 314.301 16.2344 315.283 15.7266C316.265 15.2018 317.264 14.8125 318.279 14.5586C319.312 14.2878 320.302 14.1523 321.25 14.1523C322.503 14.1523 323.594 14.2878 324.525 14.5586C325.456 14.8294 326.227 15.1934 326.836 15.6504C327.462 16.1074 327.928 16.6406 328.232 17.25C328.537 17.8424 328.689 18.4688 328.689 19.1289C328.689 19.9245 328.461 20.6439 328.004 21.2871C327.547 21.9134 326.938 22.4635 326.176 22.9375L316.146 28.8535ZM321.25 23.6992C321.47 23.5638 321.648 23.4368 321.783 23.3184C321.936 23.1829 322.054 23.0306 322.139 22.8613C322.223 22.6751 322.283 22.4551 322.316 22.2012C322.367 21.9303 322.393 21.6003 322.393 21.2109C322.393 20.7878 322.342 20.3223 322.24 19.8145C322.156 19.2897 322.003 18.7988 321.783 18.3418C321.563 17.8848 321.284 17.5039 320.945 17.1992C320.607 16.8945 320.201 16.7422 319.727 16.7422C319.117 16.7422 318.592 16.9284 318.152 17.3008C317.729 17.6562 317.374 18.1217 317.086 18.6973C316.815 19.2728 316.595 19.9329 316.426 20.6777C316.273 21.4056 316.155 22.1419 316.07 22.8867C315.986 23.6315 315.935 24.3509 315.918 25.0449C315.901 25.722 315.893 26.2975 315.893 26.7715L321.25 23.6992Z" fill="#2E3125"/>
<path d="M341.816 16.1836C341.427 16.1836 341.055 16.2344 340.699 16.3359C340.361 16.4375 340.056 16.6068 339.785 16.8438C339.514 17.0638 339.303 17.3516 339.15 17.707C338.998 18.0456 338.922 18.4518 338.922 18.9258C338.922 19.5859 339.159 20.2461 339.633 20.9062C340.124 21.5495 340.725 22.2266 341.436 22.9375C342.163 23.6315 342.942 24.3594 343.771 25.1211C344.618 25.8659 345.396 26.6615 346.107 27.5078C346.835 28.3372 347.436 29.2259 347.91 30.1738C348.401 31.1217 348.646 32.1374 348.646 33.2207C348.646 34.4395 348.435 35.5228 348.012 36.4707C347.605 37.4186 347.013 38.2227 346.234 38.8828C345.473 39.543 344.542 40.0508 343.441 40.4062C342.358 40.7448 341.148 40.9141 339.811 40.9141C338.643 40.9141 337.585 40.7533 336.637 40.4316C335.689 40.0931 334.842 39.6868 334.098 39.2129C333.37 38.722 332.743 38.2057 332.219 37.6641C331.694 37.1224 331.288 36.6315 331 36.1914L331.889 35.5566C332.109 35.8105 332.388 36.0898 332.727 36.3945C333.065 36.6823 333.438 36.9531 333.844 37.207C334.267 37.4609 334.715 37.6725 335.189 37.8418C335.663 37.9941 336.146 38.0703 336.637 38.0703C337.855 38.0703 338.854 37.7826 339.633 37.207C340.411 36.6146 340.801 35.7428 340.801 34.5918C340.801 33.9486 340.589 33.2884 340.166 32.6113C339.743 31.9173 339.21 31.2064 338.566 30.4785C337.923 29.7507 337.229 28.9974 336.484 28.2188C335.74 27.4401 335.046 26.6361 334.402 25.8066C333.759 24.9772 333.226 24.1224 332.803 23.2422C332.38 22.362 332.168 21.4479 332.168 20.5C332.168 19.4336 332.38 18.5026 332.803 17.707C333.243 16.9115 333.818 16.2513 334.529 15.7266C335.257 15.2018 336.078 14.8125 336.992 14.5586C337.923 14.2878 338.88 14.1523 339.861 14.1523C340.995 14.1523 342.028 14.2539 342.959 14.457C343.89 14.6602 344.686 14.9733 345.346 15.3965C346.023 15.8027 346.539 16.319 346.895 16.9453C347.267 17.5716 347.453 18.2995 347.453 19.1289C347.453 19.7721 347.242 20.3307 346.818 20.8047C346.395 21.2786 345.803 21.5156 345.041 21.5156C344.313 21.5156 343.755 21.3633 343.365 21.0586C342.993 20.737 342.807 20.3053 342.807 19.7637C342.807 19.4082 342.891 19.1289 343.061 18.9258C343.247 18.7227 343.45 18.5618 343.67 18.4434C343.89 18.3079 344.085 18.1979 344.254 18.1133C344.44 18.0117 344.533 17.8848 344.533 17.7324C344.533 17.2585 344.279 16.8861 343.771 16.6152C343.264 16.3275 342.612 16.1836 341.816 16.1836Z" fill="#2E3125"/>
</svg>
