<svg width="26" height="26" viewBox="0 0 26 26" fill="none" xmlns="http://www.w3.org/2000/svg">
<path d="M14.7755 8.76453C14.5908 8.96977 14.6074 9.28591 14.8126 9.47066C15.0179 9.6554 15.334 9.63879 15.5188 9.43355L14.7755 8.76453ZM15.5308 9.42021C15.7155 9.21497 15.6989 8.89882 15.4937 8.71407C15.2884 8.52933 14.9723 8.54594 14.7875 8.75118L15.5308 9.42021ZM7.56999 7.56361C7.38525 7.76886 7.40187 8.085 7.60711 8.26974C7.81236 8.45449 8.1285 8.43786 8.31324 8.23262L7.56999 7.56361ZM8.32525 8.21928C8.50999 8.01403 8.49337 7.69789 8.28813 7.51315C8.08288 7.3284 7.76674 7.34503 7.582 7.55027L8.32525 8.21928ZM7.57014 14.769C7.38531 14.9741 7.40178 15.2903 7.60694 15.4751C7.8121 15.6599 8.12825 15.6435 8.31309 15.4383L7.57014 14.769ZM8.3251 15.425C8.50994 15.2198 8.49346 14.9037 8.2883 14.7188C8.08314 14.534 7.76699 14.5505 7.58215 14.7556L8.3251 15.425ZM1.0198 1.88641L0.533093 2.00093L0.533094 2.00093L1.0198 1.88641ZM1.92452 1.03011L2.0656 0.550424L2.0656 0.550424L1.92452 1.03011ZM24.9923 8.39615L25.4773 8.51743L25.4773 8.51741L24.9923 8.39615ZM23.4631 5.84758L23.5844 5.36251L23.5844 5.36251L23.4631 5.84758ZM20.9145 7.37673L21.3996 7.49801L21.3996 7.49799L20.9145 7.37673ZM6.26837 20.8502L6.38079 21.3374L6.38081 21.3374L6.26837 20.8502ZM4.69315 23.3705L5.18035 23.2581L5.18034 23.258L4.69315 23.3705ZM7.21351 24.9457L7.32593 25.4329L7.32593 25.4329L7.21351 24.9457ZM18.8102 18.0042L19.1637 18.3577L19.1637 18.3577L18.8102 18.0042ZM15.5188 9.43355L15.5308 9.42021L14.7875 8.75118L14.7755 8.76453L15.5188 9.43355ZM8.31324 8.23262L8.32525 8.21928L7.582 7.55027L7.56999 7.56361L8.31324 8.23262ZM8.31309 15.4383L8.3251 15.425L7.58215 14.7556L7.57014 14.769L8.31309 15.4383ZM6.02647 20.9817L1.50651 1.77189L0.533094 2.00093L5.05305 21.2108L6.02647 20.9817ZM1.50651 1.7719C1.46777 1.60725 1.62116 1.46206 1.78343 1.50979L2.0656 0.550424C1.16755 0.286295 0.318703 1.08974 0.533093 2.00093L1.50651 1.7719ZM1.78343 1.50979L21.0106 7.16486L21.2928 6.20549L2.0656 0.550424L1.78343 1.50979ZM25.4773 8.51741C25.8258 7.12349 24.9783 5.71099 23.5844 5.36251L23.3419 6.33265C24.2 6.54718 24.7217 7.41675 24.5072 8.27489L25.4773 8.51741ZM23.5844 5.36251C22.1904 5.01403 20.7779 5.86152 20.4295 7.25546L21.3996 7.49799C21.6141 6.63986 22.4837 6.11811 23.3419 6.33265L23.5844 5.36251ZM20.4295 7.25544C19.9897 9.01416 18.2462 11.9167 15.4845 14.6784L16.1916 15.3856C19.0169 12.5602 20.8981 9.50389 21.3996 7.49801L20.4295 7.25544ZM15.4845 14.6784C12.7602 17.4027 9.42033 19.6097 6.15594 20.363L6.38081 21.3374C9.89062 20.5274 13.3892 18.1879 16.1916 15.3856L15.4845 14.6784ZM6.15596 20.363C4.75592 20.6861 3.88286 22.0829 4.20596 23.4829L5.18034 23.258C4.98145 22.3962 5.5189 21.5363 6.38079 21.3374L6.15596 20.363ZM4.20595 23.4829C4.52903 24.883 5.92592 25.756 7.32593 25.4329L7.10109 24.4585C6.23917 24.6574 5.37924 24.12 5.18035 23.2581L4.20595 23.4829ZM7.32593 25.4329C11.8677 24.3849 16.0336 21.4877 19.1637 18.3577L18.4566 17.6506C15.4044 20.7027 11.3973 23.4672 7.10109 24.4585L7.32593 25.4329ZM19.1637 18.3577C22.2563 15.265 24.716 11.5624 25.4773 8.51743L24.5072 8.27488C23.8077 11.0727 21.4856 14.6215 18.4566 17.6506L19.1637 18.3577Z" fill="#2E3125"/>
</svg>
