<svg width="25" height="24" viewBox="0 0 25 24" fill="none" xmlns="http://www.w3.org/2000/svg">
<path d="M12.9722 21.8694C7.53061 21.8694 3.10272 17.4423 3.10272 11.9999C3.10272 6.55748 7.52983 2.13037 12.9722 2.13037C18.4146 2.13037 22.8417 6.55748 22.8417 11.9999C22.8417 17.4423 18.4138 21.8694 12.9722 21.8694ZM12.9722 3.03284C8.02759 3.03284 4.00468 7.05554 4.00468 12.0004C4.00468 16.9452 8.02738 20.9679 12.9722 20.9679C17.9171 20.9679 21.9398 16.9452 21.9398 12.0004C21.9398 7.05554 17.9171 3.03284 12.9722 3.03284Z" fill="#2E3125"/>
<path d="M12.9722 24C6.35564 24 0.972229 18.6166 0.972229 12C0.972229 5.38341 6.35564 0 12.9722 0C19.5888 0 24.9722 5.38341 24.9722 12C24.9722 18.6166 19.5888 24 12.9722 24ZM12.9722 0.900927C6.85221 0.900927 1.87316 5.87998 1.87316 12C1.87316 18.12 6.85221 23.0991 12.9722 23.0991C19.0922 23.0991 24.0713 18.12 24.0713 12C24.0713 5.87998 19.0922 0.900927 12.9722 0.900927Z" fill="#2E3125"/>
<path d="M12.9722 5.50845C12.7235 5.50845 12.5217 5.30663 12.5217 5.05792V2.58138C12.5217 2.33268 12.7235 2.13086 12.9722 2.13086C13.2209 2.13086 13.4228 2.33268 13.4228 2.58138V5.06014C13.4214 5.30884 13.2203 5.50845 12.9722 5.50845Z" fill="#2E3125"/>
<path d="M17.4305 7.0911C17.4305 6.97118 17.4782 6.85728 17.5623 6.77237L19.3126 5.02203C19.4839 4.84174 19.7692 4.8343 19.9503 5.00573C20.1372 5.18381 20.1372 5.48161 19.9503 5.65889L18.2 7.40923C17.9176 7.69214 17.4305 7.49192 17.4305 7.0911Z" fill="#2E3125"/>
<path d="M22.3905 12.4508H19.914C19.6653 12.4508 19.4634 12.249 19.4634 12.0003C19.4634 11.7516 19.6653 11.5498 19.914 11.5498H22.3905C22.6392 11.5498 22.841 11.7516 22.841 12.0003C22.841 12.249 22.64 12.4508 22.3905 12.4508Z" fill="#2E3125"/>
<path d="M19.3138 18.9781L17.5634 17.2278C17.3831 17.0565 17.3757 16.7712 17.5471 16.5901C17.7183 16.4092 18.0037 16.4024 18.1848 16.5738L19.9514 18.3405C20.1273 18.5164 20.1279 18.8015 19.9514 18.9781C19.7748 19.1546 19.4894 19.1546 19.3138 18.9781Z" fill="#2E3125"/>
<path d="M12.9722 21.8693C12.7235 21.8693 12.5217 21.6675 12.5217 21.4188V18.9422C12.5217 18.6935 12.7235 18.4917 12.9722 18.4917C13.2209 18.4917 13.4228 18.6935 13.4228 18.9422V21.4179C13.4228 21.6674 13.2209 21.8693 12.9722 21.8693Z" fill="#2E3125"/>
<path d="M5.86162 18.6599C5.86162 18.54 5.90931 18.4261 5.99342 18.3412L7.74376 16.5909C7.915 16.4106 8.20032 16.4031 8.38142 16.5746C8.56231 16.7458 8.56915 17.0311 8.39772 17.2122C8.3955 17.2144 6.63243 18.9775 6.63104 18.9789C6.34854 19.2618 5.86157 19.06 5.86157 18.66L5.86162 18.6599Z" fill="#2E3125"/>
<path d="M3.55343 12.4508C3.30472 12.4508 3.10291 12.249 3.10291 12.0003C3.10291 11.7516 3.30472 11.5498 3.55343 11.5498H6.03219C6.28089 11.5498 6.48271 11.7516 6.48271 12.0003C6.48271 12.249 6.28089 12.4508 6.03219 12.4508H3.55343Z" fill="#2E3125"/>
<path d="M7.74439 7.40951L5.99405 5.65916C5.82281 5.47887 5.83026 5.19375 6.01035 5.02151C6.1846 4.85611 6.45724 4.85611 6.63152 5.02151L8.38186 6.77185C8.55772 6.94772 8.55833 7.23283 8.38186 7.40951C8.2062 7.58597 7.92025 7.58597 7.74439 7.40951Z" fill="#2E3125"/>
<path d="M17.3949 12.4507H12.9722C12.7235 12.4507 12.5217 12.2489 12.5217 12.0002V7.09114C12.5217 6.84244 12.7235 6.64062 12.9722 6.64062C13.2209 6.64062 13.4228 6.84244 13.4228 7.09114V11.5497H17.3947C17.6434 11.5497 17.8452 11.7515 17.8452 12.0002C17.8455 12.2489 17.6436 12.4507 17.3949 12.4507Z" fill="#2E3125"/>
<path d="M15.9192 4.91744C15.689 4.82206 15.5811 4.55766 15.6763 4.32825L16.1745 3.1298C16.2677 2.899 16.5305 2.78794 16.7615 2.8811C16.9953 2.97567 17.1064 3.24449 17.0066 3.47631L16.5084 4.67615C16.4108 4.90836 16.1448 5.01201 15.9192 4.91744Z" fill="#2E3125"/>
<path d="M20.0411 8.92799C20.0411 8.74469 20.1521 8.58009 20.3218 8.51168L21.5232 8.02011C21.754 7.92554 22.017 8.03641 22.1116 8.2666C22.2061 8.4974 22.0953 8.76038 21.8651 8.85496L20.6636 9.34572C20.3636 9.46726 20.0411 9.24672 20.0411 8.92799Z" fill="#2E3125"/>
<path d="M21.4726 16.0907L20.2772 15.5834C20.0478 15.4858 19.9413 15.2214 20.0381 14.9921C20.1349 14.7627 20.4001 14.6562 20.6295 14.753L21.8249 15.2603C22.0543 15.3571 22.1615 15.6215 22.0647 15.8509C21.9671 16.0817 21.7014 16.1875 21.4726 16.0907Z" fill="#2E3125"/>
<path d="M16.4796 21.1935C16.2957 21.1935 16.1303 21.0825 16.0611 20.9121L15.5784 19.707C15.4816 19.4776 15.5897 19.2132 15.819 19.117C16.0529 19.0186 16.3233 19.1319 16.4148 19.3717L16.8975 20.576C16.9907 20.8068 16.8796 21.0698 16.6488 21.163C16.5951 21.1845 16.5378 21.1958 16.4798 21.1958L16.4796 21.1935Z" fill="#2E3125"/>
<path d="M9.06305 21.0642C8.83447 20.9658 8.72943 20.7008 8.82763 20.472L9.34234 19.2796C9.44596 19.0532 9.71317 18.954 9.93976 19.0577C10.1587 19.1583 10.2601 19.413 10.17 19.6363L9.65605 20.8287C9.55826 21.0559 9.29386 21.164 9.06305 21.0642Z" fill="#2E3125"/>
<path d="M3.75433 15.4511C3.75433 15.265 3.86762 15.098 4.04106 15.0304L5.24838 14.5551C5.47998 14.4635 5.74216 14.5774 5.83313 14.809C5.92408 15.0406 5.8108 15.3028 5.5792 15.3938L4.37111 15.869C4.07834 15.9859 3.75516 15.7714 3.75433 15.4511Z" fill="#2E3125"/>
<path d="M5.35424 9.14859L4.16547 8.62724C3.93528 8.53348 3.82441 8.26968 3.91898 8.0395C4.01656 7.80187 4.29283 7.69241 4.52743 7.80187L5.71681 8.32321C5.94479 8.42301 6.04902 8.68882 5.94922 8.91677C5.84881 9.14475 5.58283 9.24758 5.35424 9.14859Z" fill="#2E3125"/>
<path d="M10.0464 4.87379C9.8603 4.87379 9.69269 4.7591 9.62568 4.58565L9.15786 3.37452C9.06188 3.14514 9.16973 2.88074 9.39911 2.78457C9.6285 2.68859 9.89289 2.79644 9.98907 3.02582C9.98987 3.02663 10.4666 4.25987 10.4666 4.2607C10.5804 4.55648 10.3615 4.87379 10.0464 4.87379Z" fill="#2E3125"/>
</svg>
