<svg width="25" height="24" viewBox="0 0 25 24" fill="none" xmlns="http://www.w3.org/2000/svg">
<path d="M12.812 0C6.19519 0 0.811676 5.38352 0.811676 12.0003C0.811676 14.0249 1.32588 16.0205 2.30094 17.7885L0.0408717 23.2563C-0.0376973 23.4464 -0.00117728 23.6641 0.134819 23.8179C0.23838 23.9354 0.38615 24 0.53849 24C0.585825 24 0.633642 23.9938 0.680496 23.9808L6.70675 22.3305C8.5521 23.4234 10.6577 23.9998 12.8118 23.9998C19.4286 23.9998 24.8121 18.6168 24.8121 11.9994C24.8124 5.38261 19.4286 0.000325693 12.8118 0.000325693L12.812 0ZM12.812 22.9236C10.7792 22.9236 8.79382 22.3599 7.07124 21.2931C6.98547 21.2397 6.88719 21.2123 6.78795 21.2123C6.74038 21.2123 6.6928 21.2186 6.64595 21.2315L1.45564 22.6528L3.3964 17.957C3.46055 17.802 3.44854 17.6259 3.36444 17.481C2.39877 15.8197 1.8884 13.9246 1.8884 12C1.8884 5.9766 6.78868 1.07607 12.8123 1.07607C18.8359 1.07607 23.7362 5.97635 23.7362 12C23.7362 18.0236 18.8359 22.9238 12.8123 22.9238L12.812 22.9236Z" fill="#2E3125"/>
<path d="M17.9064 14.5529L15.3038 13.1931C15.1228 13.0987 14.9042 13.1146 14.7389 13.2342L12.5446 14.8234C11.3136 13.9094 10.575 13.0937 10.5616 13.0788C10.5534 13.0697 10.5436 13.0629 10.5349 13.0545C10.5272 13.0468 10.521 13.0379 10.5123 13.0305C10.5018 13.0214 9.99741 12.5761 9.35923 11.7248L10.985 9.47984C11.1044 9.31453 11.1205 9.09587 11.0258 8.91494L9.6663 6.31268C9.5291 6.04982 9.2052 5.9477 8.94255 6.08369L6.53399 7.32642C6.30284 7.4456 6.19015 7.71303 6.26584 7.96171C7.37785 11.6044 9.52381 13.5915 9.78093 13.8202C10.0575 14.1239 12.603 16.8374 16.2575 17.9531C16.3097 17.9689 16.3625 17.9764 16.4147 17.9764C16.6117 17.9764 16.7986 17.8678 16.8928 17.6849L18.1358 15.2766C18.2715 15.0137 18.1694 14.6901 17.9068 14.5529L17.9064 14.5529ZM7.43282 8.0732L8.95955 7.28554L9.91704 9.11816L8.71418 10.7795C8.26053 10.0474 7.79894 9.14246 7.43276 8.0732H7.43282ZM16.146 16.7839C15.1575 16.4367 14.259 15.9636 13.4848 15.4712L15.1 14.3013L16.9329 15.2588L16.146 16.7839Z" fill="#2E3125"/>
</svg>
